<?xml version="1.0" standalone="no"?>
<!DOCTYPE svg PUBLIC "-//W3C//DTD SVG 20010904//EN"
 "http://www.w3.org/TR/2001/REC-SVG-20010904/DTD/svg10.dtd">
<svg version="1.0" xmlns="http://www.w3.org/2000/svg"
 width="1200.000000pt" height="630.000000pt" viewBox="0 0 1200.000000 630.000000"
 preserveAspectRatio="xMidYMid meet">

<g transform="translate(0.000000,630.000000) scale(0.100000,-0.100000)"
fill="#000000" stroke="none">
<path d="M4755 5280 c-263 -24 -457 -110 -620 -275 -97 -99 -166 -211 -210
-342 -65 -192 -65 -192 -65 -1513 0 -1312 0 -1319 61 -1505 100 -302 339 -521
651 -595 153 -36 283 -40 1428 -40 1145 0 1275 4 1428 40 312 74 553 294 650
595 58 179 57 149 57 1515 0 1165 -1 1262 -18 1348 -77 400 -339 668 -736 755
-94 20 -121 20 -1316 23 -671 1 -1260 -2 -1310 -6z m-143 -1902 c42 -12 132
-84 123 -98 -3 -5 -26 -20 -51 -34 l-46 -26 -30 25 c-54 45 -151 27 -183 -35
-27 -53 -20 -98 24 -141 48 -49 98 -53 156 -13 41 28 62 25 115 -16 l25 -19
-30 -31 c-118 -124 -325 -97 -400 53 -96 193 85 399 297 335z m470 0 c51 -15
126 -82 149 -133 11 -23 19 -63 19 -95 0 -72 -26 -126 -83 -176 -103 -91 -235
-86 -332 11 -102 101 -102 232 -1 330 72 71 154 91 248 63z m935 -42 c-10 -53
-11 -54 -48 -60 -64 -10 -73 -35 -77 -208 l-4 -148 -59 0 -59 0 0 230 0 230
60 0 c53 0 60 -2 60 -20 0 -18 2 -18 36 5 20 14 51 25 69 25 l32 0 -10 -54z
m301 38 c37 -15 92 -61 92 -76 0 -4 -23 -19 -51 -34 l-51 -25 -22 20 c-28 27
-101 29 -110 4 -10 -24 10 -38 93 -62 41 -13 85 -30 98 -38 55 -36 72 -137 31
-188 -46 -58 -163 -82 -261 -53 -42 13 -107 69 -107 92 0 7 22 23 49 36 l50
23 32 -27 c26 -22 40 -26 78 -24 42 3 46 5 46 28 0 23 -8 28 -87 53 -100 32
-142 66 -152 122 -11 55 23 118 77 144 51 25 141 28 195 5z m443 5 c87 -27
159 -126 159 -221 l0 -48 -175 0 -176 0 15 -29 c32 -61 135 -78 198 -31 l28
21 40 -32 c37 -30 39 -34 26 -53 -7 -12 -38 -34 -67 -49 -48 -26 -62 -28 -124
-25 -78 5 -117 22 -165 70 -89 89 -92 244 -7 337 54 59 163 85 248 60z m455
-26 c-12 -65 -16 -73 -41 -73 -13 0 -37 -11 -52 -24 l-28 -24 -3 -156 -3 -156
-60 0 -59 0 0 230 0 230 60 0 c53 0 60 -2 60 -20 0 -18 2 -18 36 5 20 14 50
25 67 25 28 0 29 -1 23 -37z m307 24 c18 -8 39 -22 47 -32 14 -17 15 -16 20 6
5 21 12 24 63 27 l57 3 0 -231 0 -230 -56 0 c-47 0 -57 3 -61 19 -5 19 -7 18
-50 -5 -141 -75 -323 43 -323 209 0 165 164 291 303 234z m-2113 -139 c0 -94
5 -151 13 -168 31 -62 122 -66 157 -7 17 28 20 51 20 175 l0 142 60 0 60 0 0
-230 0 -230 -60 0 c-53 0 -60 2 -60 20 0 18 -2 18 -37 -6 -33 -23 -46 -25
-103 -22 -79 4 -123 31 -151 92 -16 35 -19 67 -19 209 l0 167 60 0 60 0 0
-142z"/>
<path d="M4950 3257 c-43 -21 -72 -76 -66 -122 7 -60 60 -105 122 -105 41 0
51 5 85 39 33 33 39 45 39 81 0 36 -6 48 -39 81 -32 32 -46 39 -77 39 -22 0
-50 -6 -64 -13z"/>
<path d="M6632 3264 c-31 -16 -59 -50 -49 -60 2 -3 53 -3 113 -2 l108 3 -29
33 c-37 41 -93 51 -143 26z"/>
<path d="M7386 3239 c-89 -81 -37 -209 84 -209 36 0 48 6 82 40 38 38 40 43
35 86 -7 66 -48 105 -115 112 -46 4 -53 2 -86 -29z"/>
</g>
</svg>
